<?xml version="1.0" encoding="utf-8"?>
<!-- Generator: Adobe Illustrator 24.3.0, SVG Export Plug-In . SVG Version: 6.00 Build 0)  -->
<svg version="1.1" id="Layer_1" xmlns="http://www.w3.org/2000/svg" xmlns:xlink="http://www.w3.org/1999/xlink" x="0px" y="0px"
	 viewBox="0 0 1024 1024" style="enable-background:new 0 0 1024 1024;" xml:space="preserve">
<style type="text/css">
	.st0{display:none;}
	.st1{display:inline;}
	.st2{fill-rule:evenodd;clip-rule:evenodd;fill:url(#SVGID_1_);}
	.st3{fill-rule:evenodd;clip-rule:evenodd;fill:url(#SVGID_2_);}
	.st4{fill-rule:evenodd;clip-rule:evenodd;fill:url(#SVGID_3_);}
	.st5{display:inline;fill-rule:evenodd;clip-rule:evenodd;fill:#8A88A3;}
	.st6{display:inline;fill-rule:evenodd;clip-rule:evenodd;fill:url(#SVGID_4_);}
	.st7{fill:#FFFFFF;}
	.st8{fill-rule:evenodd;clip-rule:evenodd;}
	.st9{fill-rule:evenodd;clip-rule:evenodd;fill:#3A3A3A;}
	.st10{display:inline;fill:#FFFFFF;}
	.st11{display:inline;opacity:0.3;fill-rule:evenodd;clip-rule:evenodd;fill:url(#SVGID_5_);enable-background:new    ;}
	.st12{fill-rule:evenodd;clip-rule:evenodd;fill:#3D3D3D;}
	.st13{fill-rule:evenodd;clip-rule:evenodd;fill:#595959;}
	.st14{opacity:0.5;}
	.st15{fill:none;stroke:#000000;stroke-width:20;stroke-miterlimit:10;}
	.st16{fill:none;stroke:#FFFFFF;stroke-width:20;stroke-miterlimit:10;}
	.st17{font-family:'EurostileLTStd-BoldEx2';}
	.st18{font-size:175px;}
	.st19{enable-background:new    ;}
	.st20{fill:none;stroke:#000000;stroke-miterlimit:10;}
</style>
<g id="Layer_1_1_" class="st0">
	<g class="st1">
		
			<linearGradient id="SVGID_1_" gradientUnits="userSpaceOnUse" x1="334.2704" y1="873.824" x2="400.9372" y2="-48.8426" gradientTransform="matrix(1 0 0 -1 0 1024)">
			<stop  offset="0" style="stop-color:#68372B"/>
			<stop  offset="1" style="stop-color:#352879"/>
		</linearGradient>
		<path class="st2" d="M584.8,342.9v-187C547,146,521.1,142,483.3,142c-198.9,0-372,165.1-372,370c0,212.8,175,370,374,370
			c35.8,0,55.7-4,99.4-15.9v-191C541,697,519.1,703,483.3,703c-109.4,0-194.9-91.5-194.9-194.9c0-105.4,83.5-194.9,192.9-194.9
			C519.1,313.1,550.9,323,584.8,342.9L584.8,342.9z"/>
		
			<linearGradient id="SVGID_2_" gradientUnits="userSpaceOnUse" x1="731.5681" y1="902.5305" x2="798.2347" y2="-20.1362" gradientTransform="matrix(1 0 0 -1 0 1024)">
			<stop  offset="0" style="stop-color:#68372B"/>
			<stop  offset="1" style="stop-color:#352879"/>
		</linearGradient>
		<polygon class="st3" points="912.7,353.1 594.4,353.1 594.4,498.3 769.5,498.3 		"/>
		
			<linearGradient id="SVGID_3_" gradientUnits="userSpaceOnUse" x1="713.7708" y1="901.2445" x2="780.4375" y2="-21.4221" gradientTransform="matrix(1 0 0 -1 0 1024)">
			<stop  offset="0" style="stop-color:#68372B"/>
			<stop  offset="1" style="stop-color:#352879"/>
		</linearGradient>
		<polygon class="st4" points="771.5,528.1 594.4,528.1 594.4,673.3 912.7,673.3 		"/>
	</g>
</g>
<g id="Layer_12" class="st0">
	<rect class="st5" width="1024" height="1024"/>
</g>
<g id="Layer_11_copy" class="st0">
	
		<linearGradient id="SVGID_4_" gradientUnits="userSpaceOnUse" x1="512.05" y1="1017.1594" x2="512.05" y2="689.3555" gradientTransform="matrix(1 0 0 -1 0 1024)">
		<stop  offset="0" style="stop-color:#68372B"/>
		<stop  offset="0.7388" style="stop-color:#352879"/>
	</linearGradient>
	<path class="st6" d="M267.1,1010H139.3C70.1,1010,14,953.9,14,884.7V139.3C14,70.1,70.1,14,139.3,14h745.5
		c69.2,0,125.3,56.1,125.3,125.3v745.5c0,69.2-56.1,125.3-125.3,125.3H756.7"/>
	<g class="st1">
		<polygon class="st7" points="641.3,914 641.3,657 524,657 524,798.4 		"/>
		<polygon class="st7" points="500,800 500,657 382.7,657 382.7,914 		"/>
	</g>
</g>
<g id="Layer_11_copy_2" class="st0">
	<g class="st1">
		<path class="st8" d="M267.1,1010H139.3C70.1,1010,14,953.9,14,884.7V139.3C14,70.1,70.1,14,139.3,14h745.5
			c69.2,0,125.3,56.1,125.3,125.3v745.5c0,69.2-56.1,125.3-125.3,125.3H756.7L267.1,1010L267.1,1010z"/>
		<path class="st9" d="M14,497V139.3C14,70.1,70.1,14,139.3,14H512L14,497z"/>
	</g>
	<polygon class="st10" points="639.3,896 639.3,643 523.8,643 523.8,782.1 	"/>
	<polygon class="st10" points="500.2,783.7 500.2,643 384.7,643 384.7,896 	"/>
	
		<linearGradient id="SVGID_5_" gradientUnits="userSpaceOnUse" x1="-509" y1="953.407" x2="-509" y2="103.1061" gradientTransform="matrix(1 0 0 -1 0 1024)">
		<stop  offset="4.442563e-02" style="stop-color:#68372B"/>
		<stop  offset="0.7388" style="stop-color:#352879"/>
	</linearGradient>
	<path class="st11" d="M-741.6,970H-863c-65.7,0-119-53.3-119-119V143c0-65.7,53.3-119,119-119h708c65.7,0,119,53.3,119,119v708
		c0,65.7-53.3,119-119,119h-121.6"/>
</g>
<g id="Layer_11_copy_3">
	<path class="st12" d="M267.1,1010H139.3C70.1,1010,14,953.9,14,884.7V139.3C14,70.1,70.1,14,139.3,14h745.5
		c69.2,0,125.3,56.1,125.3,125.3v745.5c0,69.2-56.1,125.3-125.3,125.3H756.7L267.1,1010L267.1,1010z"/>
	<path class="st13" d="M267.1,1010H139.3C70.1,1010,14,953.9,14,884.7V809h996v75.7c0,69.2-56.1,125.3-125.3,125.3h-128H267.1z"/>
	<g class="st14">
		<line class="st15" x1="14" y1="620" x2="1010" y2="620"/>
		<line class="st16" x1="14" y1="640" x2="1010" y2="640"/>
		<line class="st15" x1="14" y1="660" x2="1010" y2="660"/>
		<line class="st16" x1="14" y1="680" x2="1010" y2="680"/>
		<line class="st15" x1="14" y1="700" x2="1010" y2="700"/>
		<line class="st16" x1="14" y1="720" x2="1010" y2="720"/>
		<line class="st15" x1="14" y1="740" x2="1010" y2="740"/>
		<line class="st16" x1="14" y1="760" x2="1010" y2="760"/>
		<line class="st15" x1="14" y1="780" x2="1010" y2="780"/>
		<line class="st16" x1="14" y1="800" x2="1010" y2="800"/>
	</g>
</g>
<g id="Layer_11" class="st0">
</g>
<g id="VIC20" class="st0">
	<text transform="matrix(1 0 0 1 118.6028 556.6257)" class="st10 st17 st18">VIC20</text>
</g>
<g id="Plus4" class="st0">
	<text transform="matrix(1 0 0 1 168.3914 556.6257)" class="st10 st17 st18">Plus4</text>
</g>
<g id="DTV" class="st0">
	<text transform="matrix(1 0 0 1 243.9006 556.6257)" class="st10 st17 st18">DTV</text>
</g>
<g id="C64" class="st0">
	<text transform="matrix(1 0 0 1 246.177 556.6257)" class="st10 st17 st18">C64</text>
</g>
<g id="SID" class="st0">
	<text transform="matrix(1 0 0 1 289.3142 556.6257)" class="st10 st17 st18">SID</text>
</g>
<g id="PET" class="st0">
	<text transform="matrix(1 0 0 1 265.6008 556.6257)" class="st10 st17 st18">PET</text>
</g>
<g id="CBM2" class="st0">
	<text transform="matrix(1 0 0 1 122.9768 556.6257)" class="st10 st17 st18">CBM2</text>
</g>
<g id="SCPU" class="st0">
	<text transform="matrix(1 0 0 1 149.052 556.6257)" class="st10 st17 st18">SCPU</text>
</g>
<g id="C128">
	<g class="st19">
		<path class="st7" d="M170.1,474.4c0-18.6,5.2-30,14.8-36.8s23.5-9,41-9h22.8h22.8c27.7,0,43.3,3,51.9,10.4s10.4,19.4,10.2,37.3
			h-19.4h-19.4v-1.8v-1.8c0-4.6-1.7-7.5-4.8-9.3s-7.7-2.5-13.4-2.5h-21.2h-21.2c-10.2,0-16.3,2.4-19.8,6.8s-4.5,10.7-4.5,18.6v6.8
			v6.8c0,9.2,1,15.5,4.2,19.6s8.8,5.8,18,5.8h20.7h20.7c8.8,0,14.4-0.4,17.9-2.8s4.8-6.8,4.8-14.7h19.4h19.4v5.9v5.9
			c0,10.7-1.9,20.2-8.7,27.1S308,558,288.5,558h-31.3h-31.3c-17.5,0-31.5-2.2-41-9s-14.8-18.3-14.8-36.8v-18.9V474.4z"/>
		<path class="st7" d="M439.7,460.4l-23.4,15l-23.4,15l-8.8-12.7l-8.8-12.7l26.9-17.5l26.9-17.5h23.2h23.2v63.4v63.4h-17.9h-17.9
			v-48.1V460.4z"/>
		<path class="st7" d="M530.7,513.6c0-7.8,2.5-14.3,8.2-19s14.5-7.8,27-8.6l22.2-1.4l22.2-1.4c14.2-0.9,21.7-1.4,25.8-3.3
			s4.5-5.1,4.5-11.4c0-5.2-0.3-8.3-3.6-10.2s-9.8-2.4-22.3-2.4h-12.9H589c-8.2,0-13.6,0.6-16.9,2.9s-4.6,6.1-4.6,12.7v2.7v2.7h-18.4
			h-18.4v-7.4v-7.4c0-12.5,3.7-20.9,11.7-26.1s20.5-7.3,38-7.3H606h25.6c18.2,0,29.7,2.7,36.6,8.7s9.3,15.3,9.3,28.5
			c0,18.6-1.7,29.5-9.1,36.1s-20.4,8.7-43.1,10l-20,1.1l-20,1.1c-8.1,0.4-12.8,1.4-15.5,3.8s-3.3,6-3.3,11.6h56.4h56.4V543v13.7
			h-74.2h-74.2v-21.5V513.6z"/>
		<path class="st7" d="M703.1,516.4c0-6.8,1.4-12.1,4.9-15.9s9.2-6.3,17.7-7.5v-0.2v-0.2c-5.6-1-11.1-3.1-15.1-7.3
			s-6.7-10.3-6.7-19.3v-3.6v-3.6c0-14.2,3.1-21.7,12.4-25.8s24.8-4.5,49.8-4.5h19.2h19.2c16.2,0,28,1.5,35.7,6.1s11.4,12.1,11.4,24
			v4.1v4.1c0,6.8-0.8,12.5-3.9,16.8s-8.4,7.1-17.3,8.2v0.2v0.2c6.6,1.8,12.1,4.2,16,8.4s6.2,9.9,6.2,18.6v5.1v5.1
			c0,10.6-3.4,17.8-9.7,22.3s-15.6,6.4-27.4,6.4h-36.6h-36.6c-13.6,0-23.4-2.6-29.8-7.7s-9.4-12.8-9.4-22.9v-5.5V516.4z
			 M800.8,530.7c6.6,0,10.3-1,12.4-3s2.6-5.3,2.6-9.7c0-4.9-0.4-8.1-2.8-10s-6.6-2.6-14.3-2.6h-20.8H757c-7.7,0-12,0.7-14.3,2.6
			s-2.8,5.1-2.8,10c0,4.5,0.5,7.7,2.6,9.7s5.9,3,12.4,3h22.9H800.8z M799.9,479.1c5.7,0,9.4-1.1,11.7-3.2s3.2-5,3.2-8.6
			c0-4.4-1.3-7.3-3.5-9.1s-5.1-2.5-8.4-2.5h-25.2h-25.2c-3.3,0-6.3,0.7-8.4,2.5s-3.5,4.7-3.5,9.1c0,3.6,0.9,6.5,3.2,8.6
			s6,3.2,11.7,3.2h22.2H799.9z"/>
	</g>
</g>
<g id="Layer_4" class="st0">
	<g class="st1">
		<line class="st20" x1="134.8" y1="0" x2="134.8" y2="1024"/>
		<line class="st20" x1="889.2" y1="0" x2="889.2" y2="1024"/>
	</g>
</g>
</svg>
